<svg width="24" height="24" viewBox="0 0 24 24" fill="none" xmlns="http://www.w3.org/2000/svg">
  <path d="M12 20C16.4183 20 20 16.6421 20 12.5C20 8.35786 16.4183 5 12 5C7.58172 5 4 8.35786 4 12.5C4 14.9853 5.28872 17.1884 7.27391 18.5533C7.86019 18.9565 8.66667 18.5334 8.66667 17.8222V17.4C8.66667 16.5163 9.38295 15.8 10.2667 15.8H12.2C13.5255 15.8 14.6 16.8745 14.6 18.2C14.6 19.1941 15.4059 20 16.4 20H12Z" stroke="#8A2BE2" stroke-width="1.8" stroke-linejoin="round"/>
  <circle cx="8.2" cy="11" r="1" fill="#8A2BE2"/>
  <circle cx="12" cy="9" r="1" fill="#8A2BE2"/>
  <circle cx="15.8" cy="11.2" r="1" fill="#8A2BE2"/>
</svg>
